# xmcd
#
# Track frame offsets: 
#        150
#        14455
#        24978
#        38735
#        58055
#        74143
#        93630
#        105343
#        118620
#        131450
#        142908
#        156325
#        173998
#        188893
#        202355
#        217483
#        230538
#        242335
#
# Disc length: 3483 seconds
#
# Revision: 6
# Processed by: cddbd v1.5.2PL0 Copyright (c) Steve Scherf et al.
# Submitted via: ExactAudioCopyFreeDBPlugin 1.0
#
DISCID=0c0d9912
DTITLE=Various Artist - Country Collection II [CD2)
DYEAR=1993
DGENRE=Country
TTITLE0=The Bellamy Brothers - If I Said You Had A Beautiful Body
TTITLE1=Emmylou Harris - Mr. Sandman
TTITLE2=Tom Jones - Green Green Grass Of Home
TTITLE3=The Judds - Water Of Love
TTITLE4=Dolly Parton - Romeo
TTITLE5=Timi Yuro - Crazy
TTITLE6=Sutherland Brothers and Quiver - Arms Of Mary
TTITLE7=Tammy Wynette - D.I.V.O.R.C.E.
TTITLE8=Frankie Laine - Moonlight Gambler
TTITLE9=Patsy Cline - Walkin' After Midnight
TTITLE10=Sommerset - Almost Persuaded
TTITLE11=The Walkers - Oh Lonesome Me
TTITLE12=Olivia Newton John - Take Me Home Country Roads
TTITLE13=Piet Veerman - Annie's Song
TTITLE14=Mary Chapin Carpenter - Passionate Kisses
TTITLE15=Dr. Hook - Cover Of The Rolling Stone
TTITLE16=Marie Williams - Don't It Make My Brown Eyes Blue
TTITLE17=Ray Charles - I Can't Stop Loving You
EXTD=
EXTT0=
EXTT1=
EXTT2=
EXTT3=
EXTT4=
EXTT5=
EXTT6=
EXTT7=
EXTT8=
EXTT9=
EXTT10=
EXTT11=
EXTT12=
EXTT13=
EXTT14=
EXTT15=
EXTT16=
EXTT17=
PLAYORDER=
